{"title":"Prince - For Those Of You On Valium (Live 1987)","uid":13206707,"size":728925642,"categoryP":"video","categoryS":"music_videos","magnet":"?xt=urn:btih:48afed887fa2cbcde6a73e336bc306bd8081de95&amp;dn=Prince+-+For+Those+Of+You+On+Valium+%28Live+1987%29&amp;tr=udp%3A%2F%2Ftracker.leechers-paradise.org%3A6969&amp;tr=udp%3A%2F%2Fzer0day.ch%3A1337&amp;tr=udp%3A%2F%2Fopen.demonii.com%3A1337&amp;tr=udp%3A%2F%2Ftracker.coppersurfer.tk%3A6969&amp;tr=udp%3A%2F%2Fexodus.desync.com%3A6969","seeders":2,"leechers":0,"uploader":"Iznogoud9","files":6,"time":1452605180,"description":"PRINCE - FOR THOSE OF YOU ON VALIUM (LIVE, 1987)\r\n\r\nAs I was rummaging thru some piles of ancient CDs I have, I came across this \r\nPrince concert video. It was a great throwback to the time when Prince was \r\nall kinds of AWSUM instead of a gone-bonkers has-been who makes mediocre\r\ncrap. I think I got it from a friend who had got it from some peer-to-peer \r\nnetwork or another about 15 years ago. It MUST be old as dirt, as the video \r\ncodec is DIVX 3. The only thing I did to the original video was building the \r\nmissing index, otherwise it's presented as is.\r\n \nhttp://thedigitalgarden.org/0-9/261-4-those-of-you-on-valium.html\r\n\r\nQuote:\r\n\r\n&quot;Sign O' The Times Tour Warm Up Show\r\n\r\nFirst Avenue, Minneapolis\r\n\r\n21st March 1987\r\n\r\n1. Introduction  \r\n2. Housequake   \r\n3. Girls And Boys  \r\n4. Slow Love   \r\n5. Hot Thing \r\n6. Now's The Time  \r\n7. Sheila E Drum Solo   \r\n8. Strange Relationship  \r\n9. Forever In My Life   \r\n10. Kiss   \r\n11. It's Gonna Be A Beautiful Night\r\n\r\n[...]The title comes from a line Prince says at the opening of the show, \r\n'For those of you on Valium, my name is Prince.' This is a Live warm-up show at \r\nFirst Ave for the Sign O The Times tour. The source for this recording is a well \r\ncirculated video tape. The show is excellent, Prince is loose and having fun.&quot;\r\n\r\nFILE INFO:\r\n\r\nComplete name                            : Prince - For Those Of You On Valium.avi\r\nFormat                                   : AVI\r\nFormat/Info                              : Audio Video Interleave\r\nFile size                                : 695 MiB\r\nDuration                                 : 1h 7mn\r\nOverall bit rate                         : 1 431 Kbps\r\n\r\nVideo\r\nID                                       : 0\r\nFormat                                   : MPEG-4 Visual\r\nCodec ID                                 : DIV3\r\nCodec ID/Hint                            : DivX 3 Low\r\nDuration                                 : 1h 7mn\r\nBit rate                                 : 1 289 Kbps\r\nWidth                                    : 496 pixels\r\nHeight                                   : 368 pixels\r\nDisplay aspect ratio                     : 4:3\r\nFrame rate                               : 29.970 fps\r\nColor space                              : YUV\r\nChroma subsampling                       : 4:2:0\r\nBit depth                                : 8 bits\r\nCompression mode                         : Lossy\r\nBits/(Pixel*Frame)                       : 0.236\r\nStream size                              : 626 MiB (90%)\r\n\r\nAudio\r\nID                                       : 1\r\nFormat                                   : MPEG Audio\r\nFormat version                           : Version 1\r\nFormat profile                           : Layer 3\r\nMode                                     : Joint stereo\r\nMode extension                           : MS Stereo\r\nCodec ID                                 : 55\r\nCodec ID/Hint                            : MP3\r\nDuration                                 : 1h 7mn\r\nBit rate mode                            : Constant\r\nBit rate                                 : 128 Kbps\r\nChannel(s)                               : 2 channels\r\nSampling rate                            : 48.0 KHz\r\nCompression mode                         : Lossy\r\nStream size                              : 62.1 MiB (9%)\r\nAlignment                                : Aligned on interleaves\r\nInterleave, duration                     : 24 ms (0.72 video frame)","torrent":{"xt":"urn:btih:48afed887fa2cbcde6a73e336bc306bd8081de95","amp;dn":"Prince+-+For+Those+Of+You+On+Valium+%28Live+1987%29","amp;tr":["udp%3A%2F%2Ftracker.leechers-paradise.org%3A6969","udp%3A%2F%2Fzer0day.ch%3A1337","udp%3A%2F%2Fopen.demonii.com%3A1337","udp%3A%2F%2Ftracker.coppersurfer.tk%3A6969","udp%3A%2F%2Fexodus.desync.com%3A6969"],"infoHash":"48afed887fa2cbcde6a73e336bc306bd8081de95","infoHashBuffer":{"type":"Buffer","data":[72,175,237,136,127,162,203,205,230,167,62,51,107,195,6,189,128,129,222,149]},"announce":[],"urlList":[]}}